<?xml version="1.0" encoding="UTF-8" standalone="no"?>
<svg
   inkscape:version="1.1.1 (3bf5ae0d25, 2021-09-20, custom)"
   id="svg8"
   version="1.1"
   viewBox="0 0 211.66666 100.23611"
   height="378.84512"
   width="800"
   sodipodi:docname="block_ads_webkit.svg"
   xmlns:inkscape="http://www.inkscape.org/namespaces/inkscape"
   xmlns:sodipodi="http://sodipodi.sourceforge.net/DTD/sodipodi-0.dtd"
   xmlns="http://www.w3.org/2000/svg"
   xmlns:svg="http://www.w3.org/2000/svg"
   xmlns:rdf="http://www.w3.org/1999/02/22-rdf-syntax-ns#"
   xmlns:cc="http://creativecommons.org/ns#"
   xmlns:dc="http://purl.org/dc/elements/1.1/">
  <defs
     id="defs2">
    <linearGradient
       x1="225.8886"
       y1="1.9551429"
       x2="225.8886"
       y2="442.21643"
       id="blues"
       gradientTransform="scale(1.1288751,0.8858376)"
       gradientUnits="userSpaceOnUse">
      <stop
         stop-color="#34AADC"
         offset="0%"
         id="stop822" />
      <stop
         stop-color="#007AFF"
         offset="100%"
         id="stop824" />
    </linearGradient>
    <filter
       x="-0.012072435"
       y="-0.015384615"
       width="1.0241449"
       height="1.0435897"
       id="shadow">
      <feOffset
         dx="0"
         dy="5"
         in="SourceAlpha"
         result="offset"
         id="feOffset827" />
      <feGaussianBlur
         stdDeviation="2.5"
         in="offset"
         result="blur"
         id="feGaussianBlur829" />
      <feColorMatrix
         values="0 0 0 0 0  0 0 0 0 0  0 0 0 0 0  0 0 0 0.07 0"
         in="blur"
         type="matrix"
         result="matrix"
         id="feColorMatrix831" />
      <feMerge
         id="feMerge837">
        <feMergeNode
           in="matrix"
           id="feMergeNode833" />
        <feMergeNode
           in="SourceGraphic"
           id="feMergeNode835" />
      </feMerge>
    </filter>
    <inkscape:perspective
       sodipodi:type="inkscape:persp3d"
       inkscape:vp_x="-50 : 541.48609 : 1"
       inkscape:vp_y="0 : 999.99998 : 0"
       inkscape:vp_z="700 : 541.48609 : 1"
       inkscape:persp3d-origin="300 : 341.4861 : 1"
       id="perspective13" />
  </defs>
  <sodipodi:namedview
     units="px"
     showgrid="false"
     inkscape:document-rotation="0"
     inkscape:current-layer="layer1"
     inkscape:document-units="px"
     inkscape:cy="166.42857"
     inkscape:cx="426.78571"
     inkscape:zoom="1.4"
     inkscape:pageshadow="2"
     inkscape:pageopacity="0"
     borderopacity="1.0"
     bordercolor="#666666"
     pagecolor="#ffffff"
     id="base"
     inkscape:pagecheckerboard="0"
     inkscape:snap-bbox="true"
     inkscape:snap-bbox-midpoints="true"
     inkscape:snap-global="true"
     inkscape:window-width="2560"
     inkscape:window-height="1371"
     inkscape:window-x="0"
     inkscape:window-y="32"
     inkscape:window-maximized="1" />
  <metadata
     id="metadata5">
    <rdf:RDF>
      <cc:Work
         rdf:about="">
        <dc:format>image/svg+xml</dc:format>
        <dc:type
           rdf:resource="http://purl.org/dc/dcmitype/StillImage" />
      </cc:Work>
    </rdf:RDF>
  </metadata>
  <g
     id="layer1"
     inkscape:groupmode="layer"
     inkscape:label="Layer 1"
     transform="translate(-0.11117266,-29.201363)">
    <rect
       style="opacity:1;fill:#3d3846;fill-opacity:1;stroke-width:0.3877;stroke-linecap:round;stroke-linejoin:round"
       id="rect3465"
       width="211.66667"
       height="100.23611"
       x="0.11117266"
       y="29.201363" />
    <g
       id="g872"
       transform="matrix(0.11968228,0,0,0.11968228,32.981017,46.67398)">
      <path
         d="m 477.86111,306.92819 c 34.18519,26.65932 34.18519,70.51819 0,97.3925 L 317.01543,530.73745 c -34.18518,26.65932 -89.84568,26.65932 -124.03086,0 L 32.138889,404.53569 c -34.1851853,-26.65932 -34.1851853,-70.51819 0,-97.3925 L 192.98457,180.72643 c 34.18518,-26.65932 89.84568,-26.65932 124.03086,0 z"
         fill="#ff9d00"
         id="base-3" />
      <path
         d="M 193.37024,451.83177 31.812223,324.86006 C 15.524358,312.098 6.5,295.00981 6.5,276.84009 c 0,-18.16972 9.024358,-35.2579 25.312223,-48.01997 L 193.37024,101.6321 C 209.6581,88.870042 231.66873,81.731939 255,81.731939 c 23.33127,0 45.12179,7.138103 61.62976,19.900161 l 161.55802,126.97172 c 16.28786,12.76206 25.31222,29.85025 25.31222,48.01997 0,18.16971 -9.02436,35.2579 -25.31222,48.01996 L 316.62976,451.61547 C 300.12179,464.59384 278.33127,471.73194 255,471.73194 c -23.33127,0 -45.12179,-7.1381 -61.62976,-19.90017 z"
         fill="rgba(0, 0, 0, 0.1)"
         filter="url(#shadow)"
         id="mid-shadow" />
      <path
         d="M 193.37024,451.83177 31.812223,324.86006 C 15.524358,312.098 6.5,295.00981 6.5,276.84009 c 0,-18.16972 9.024358,-35.2579 25.312223,-48.01997 L 193.37024,101.6321 C 209.6581,88.870042 231.66873,81.731939 255,81.731939 c 23.33127,0 45.12179,7.138103 61.62976,19.900161 l 161.55802,126.97172 c 16.28786,12.76206 25.31222,29.85025 25.31222,48.01997 0,18.16971 -9.02436,35.2579 -25.31222,48.01996 L 316.62976,451.61547 C 300.12179,464.59384 278.33127,471.73194 255,471.73194 c -23.33127,0 -45.12179,-7.1381 -61.62976,-19.90017 z"
         fill="#ffcc00"
         id="mid" />
      <path
         d="M 193.37024,371.83177 31.812223,244.86006 C 15.524358,232.098 6.5,215.00981 6.5,196.84009 c 0,-18.16972 9.024358,-35.2579 25.312223,-48.01997 L 193.37024,21.632106 C 209.6581,8.8700422 231.66873,1.7319391 255,1.7319391 c 23.33127,0 45.12179,7.1381031 61.62976,19.9001669 L 478.18778,148.60382 c 16.28786,12.76206 25.31222,29.85025 25.31222,48.01997 0,18.16971 -9.02436,35.2579 -25.31222,48.01996 L 316.62976,371.61547 C 300.12179,384.59384 278.33127,391.73194 255,391.73194 c -23.33127,0 -45.12179,-7.1381 -61.62976,-19.90017 z"
         fill="rgba(0, 0, 0, 0.1)"
         filter="url(#shadow)"
         id="top-shadow" />
      <path
         d="M 193.37024,371.83177 31.812223,244.86006 C 15.524358,232.098 6.5,215.00981 6.5,196.84009 c 0,-18.16972 9.024358,-35.2579 25.312223,-48.01997 L 193.37024,21.632106 C 209.6581,8.8700422 231.66873,1.7319391 255,1.7319391 c 23.33127,0 45.12179,7.1381031 61.62976,19.9001669 L 478.18778,148.60382 c 16.28786,12.76206 25.31222,29.85025 25.31222,48.01997 0,18.16971 -9.02436,35.2579 -25.31222,48.01996 L 316.62976,371.61547 C 300.12179,384.59384 278.33127,391.73194 255,391.73194 c -23.33127,0 -45.12179,-7.1381 -61.62976,-19.90017 z"
         fill="url(#blues)"
         id="top"
         style="fill:url(#blues)" />
      <path
         d="m 255.5578,318.52344 v 0 c 82.55545,0 149.47987,-54.70521 149.47987,-122.1875 0,-67.4823 -66.92442,-122.187503 -149.47987,-122.187503 -82.55546,0 -149.47988,54.705203 -149.47988,122.187503 0,67.48229 66.92442,122.1875 149.47988,122.1875 z m 0,12.57812 v 0 c -91.05382,0 -164.867512,-60.33662 -164.867512,-134.76562 0,-74.429 73.813692,-134.765628 164.867512,-134.765628 91.05381,0 164.8675,60.336628 164.8675,134.765628 0,74.429 -73.81369,134.76562 -164.8675,134.76562 z"
         fill="#ffffff"
         id="ring" />
      <path
         d="m 266.5756,248.19938 c 8.26376,-1.08242 16.31834,-3.38596 23.6918,-6.91063 l 47.05389,19.34124 -24.64728,-36.92418 c 12.96466,-16.70107 12.96466,-37.85525 0,-54.55633 l 24.64728,-36.92418 -44.34642,18.22835 -1.2748,19.49929 c 18.12909,15.20435 17.66578,39.21613 -1.17218,53.89423 -4.80682,3.84436 -10.32623,6.54236 -16.12274,8.45892 z M 244.57978,144.62415 c -13.64863,1.77453 -23.87849,6.94152 -23.87849,6.94152 l -47.011,-19.34037 24.64728,36.92418 c -12.96466,16.70108 -12.96466,37.85526 0,54.55633 l -24.64728,36.92418 45.55845,-18.72654 0.97019,-18.26289 C 201.1618,208.48071 201.31402,184.22797 220.52942,169.00232 225,165 235.10589,160.76276 236.6225,160.53735 c 0,0 7.95728,-15.9132 7.95728,-15.9132 z"
         fill="#8cc8f6"
         id="rosette" />
      <path
         d="m 232.94438,192.30456 -6.26176,110.9975 50.70643,-102.94336 7.26093,-110.788388 z m -0.65516,89.664 40.61499,-82.4051 -35.59129,-6.49402 z"
         fill="#ffffff"
         fill-rule="evenodd"
         id="needle" />
    </g>
    <g
       id="g3361"
       transform="matrix(0.76206586,0,0,0.76206586,132.15723,130.96424)">
      <g
         id="g2874"
         transform="translate(0.61144294,12.728897)">
        <rect
           style="opacity:1;fill:#f5c211;fill-opacity:1;stroke-width:0.375511;stroke-linecap:round;stroke-linejoin:round"
           id="rect1247"
           width="83.101929"
           height="46.413258"
           x="-21.15444"
           y="-103.6321"
           rx="11.172537"
           ry="11.172537" />
        <text
           xml:space="preserve"
           style="font-size:33.8326px;line-height:1.25;font-family:sans-serif;letter-spacing:0px;word-spacing:0px;fill:#ffffff;stroke-width:0.453114"
           x="-5.3000612"
           y="-67.812584"
           id="text1833"><tspan
             sodipodi:role="line"
             id="tspan1831"
             style="fill:#ffffff;stroke-width:0.453114"
             x="-5.3000612"
             y="-67.812584">Ad.</tspan></text>
      </g>
      <g
         id="g3352"
         transform="matrix(0.38581303,0.38581303,-0.38581303,0.38581303,60.145651,-28.987773)">
        <rect
           style="fill:#e01b24;fill-opacity:1;stroke-width:0.273897;stroke-linecap:round;stroke-linejoin:round"
           id="rect2898"
           width="6.1949697"
           height="156.08183"
           x="-103.98376"
           y="-77.4851"
           ry="0" />
        <rect
           style="fill:#e01b24;fill-opacity:1;stroke-width:0.273897;stroke-linecap:round;stroke-linejoin:round"
           id="rect3348"
           width="6.1949697"
           height="156.08183"
           x="-2.5416682"
           y="22.845356"
           ry="0"
           transform="rotate(90)" />
      </g>
    </g>
  </g>
</svg>
